<svg xmlns="http://www.w3.org/2000/svg" width="512" height="512" viewBox="0 0 512 512">
  <defs>
    <linearGradient id="background" x1="0" y1="0" x2="1" y2="1">
      <stop offset="0" stop-color="#1d2229"/>
      <stop offset="1" stop-color="#0d0f12"/>
    </linearGradient>
    <linearGradient id="accent" x1="0" y1="0" x2="1" y2="1">
      <stop offset="0" stop-color="#79e6c2"/>
      <stop offset="1" stop-color="#32b98a"/>
    </linearGradient>
  </defs>
  <rect x="24" y="24" width="464" height="464" rx="112" fill="url(#background)"/>
  <rect x="78" y="78" width="356" height="356" rx="52" fill="#15191e" stroke="#343b45" stroke-width="10"/>
  <path d="M256 84v344M84 256h344" stroke="#343b45" stroke-width="10"/>
  <rect x="104" y="104" width="126" height="126" rx="28" fill="url(#accent)"/>
  <path d="M140 145l34 22-34 22M180 191h28" fill="none" stroke="#0d1713" stroke-linecap="round" stroke-linejoin="round" stroke-width="15"/>
  <circle cx="316" cy="152" r="13" fill="#79e6c2"/>
  <circle cx="356" cy="152" r="13" fill="#4fd09f"/>
  <circle cx="396" cy="152" r="13" fill="#32b98a"/>
  <rect x="282" y="294" width="126" height="18" rx="9" fill="#79e6c2"/>
  <rect x="282" y="334" width="92" height="18" rx="9" fill="#4fd09f"/>
  <rect x="282" y="374" width="110" height="18" rx="9" fill="#32b98a"/>
</svg>
